custom-analysis
version=1
nRows=5
nColumns=42
inDegrees=no

This file contains tibia displacement and acting force.

Units are S.I. units (seconds, meters, Newtons, ...)
Angles are in degrees.

endheader
time	APT	SIT	knee_angle	aACL_R_force	pACL_R_force	aPCL_R_force	pPCL_R_force	aMCL_R_force	mMCL_R_force	pMCL_R_force	aLCL_R_force	mLCL_R_force	pLCL_R_force	aACL_R_length	pACL_R_length	aPCL_R_length	pPCL_R_length	aMCL_R_length	mMCL_R_length	pMCL_R_length	aLCL_R_length	mLCL_R_length	pLCL_R_length	aACL_R_strain	pACL_R_strain	aPCL_R_strain	pPCL_R_strain	aMCL_R_strain	mMCL_R_strain	pMCL_R_strain	aLCL_R_strain	mLCL_R_strain	pLCL_R_strain	femur_lat_meniscii_force_r	femur_lat_meniscii_torque_r	femur_med_meniscii_force_r	femur_med_meniscii_torque_r	femur_lat_tibia_force_r	femur_lat_tibia_torque_r	femur_med_tibia_force_r	femur_med_tibia_torque_r
      0.80747390	      0.00434597	     -0.00048126	     30.00011112	     54.59865798	     25.19583317	     21.32336418	      8.69536670	     -0.11545607	     -0.08041959	      0.00000000	      0.35807857	      0.00000000	      0.00000000	      0.03440738	      0.02718659	      0.03164387	      0.03035553	      0.05812239	      0.05997317	      0.05913930	      0.05631601	      0.05312889	      0.04942652	      0.08521816	      0.05135164	      0.01764168	      0.00889826	      0.00164381	      0.00300485	     -0.02616094	      0.00605256	     -0.05663695	     -0.05571318	     78.93418813	     21.72037448	     77.61518246	     25.04453017	      0.00000000	      0.00000000	      0.00000000	      0.00000000
      0.80804719	      0.00434614	     -0.00048124	     30.00011112	     54.55891696	     25.15388174	     21.28724309	      8.61811081	     -0.18593807	     -0.15052058	      0.00000000	      0.25732048	      0.00000000	      0.00000000	      0.03440755	      0.02718677	      0.03164375	      0.03035539	      0.05812226	      0.05997304	      0.05913917	      0.05631607	      0.05312896	      0.04942659	      0.08522347	      0.05135855	      0.01763758	      0.00889361	      0.00164168	      0.00300270	     -0.02616303	      0.00605379	     -0.05663565	     -0.05571186	     78.94824452	     21.72467078	     77.63962442	     25.04961748	      0.00000000	      0.00000000	      0.00000000	      0.00000000
      0.80891170	      0.00434637	     -0.00048105	     30.00011112	     54.47151819	     25.06102161	     21.21764814	      8.47698037	     -0.31673759	     -0.28101103	      0.00000000	      0.08114937	      0.00000000	      0.00000000	      0.03440764	      0.02718686	      0.03164345	      0.03035507	      0.05812194	      0.05997271	      0.05913884	      0.05631603	      0.05312892	      0.04942654	      0.08522623	      0.05136240	      0.01762796	      0.00888308	      0.00163606	      0.00299711	     -0.02616845	      0.00605291	     -0.05663640	     -0.05571276	     78.98735853	     21.73633197	     77.71328936	     25.07238629	      0.00000000	      0.00000000	      0.00000000	      0.00000000
      0.81054994	      0.00434665	     -0.00048033	     30.00011112	     54.34070283	     24.92277667	     21.14515431	      8.38791593	     -0.41828398	     -0.38141192	      0.00000000	     -0.05512571	      0.00000000	      0.00000000	      0.03440733	      0.02718657	      0.03164271	      0.03035430	      0.05812102	      0.05997178	      0.05913793	      0.05631562	      0.05312852	      0.04942614	      0.08521659	      0.05135082	      0.01760428	      0.00885756	      0.00162030	      0.00298160	     -0.02618348	      0.00604564	     -0.05664343	     -0.05572039	     79.05385965	     21.75547182	     77.86132002	     25.12126161	      0.00000000	      0.00000000	      0.00000000	      0.00000000
      0.81326166	      0.00434663	     -0.00047895	     30.00011112	     54.18175397	     24.75989181	     21.05971037	      8.29624863	     -0.50865116	     -0.47016558	      0.00000000	     -0.18792314	      0.00000000	      0.00000000	      0.03440619	      0.02718541	      0.03164174	      0.03035328	      0.05811947	      0.05997022	      0.05913639	      0.05631488	      0.05312780	      0.04942543	      0.08518060	      0.05130620	      0.01757295	      0.00882357	      0.00159355	      0.00295543	     -0.02620881	      0.00603251	     -0.05665628	     -0.05573405	     79.15009919	     21.78162944	     78.11016599	     25.19599842	      0.00000000	      0.00000000	      0.00000000	      0.00000000
